<svg width="48" height="48" viewBox="0 0 48 48" fill="none" xmlns="http://www.w3.org/2000/svg">
<path d="M35.3226 35.996C34.0254 36.0114 32.7369 35.7926 31.5244 35.351C30.4381 34.9465 29.4566 34.3209 28.6478 33.5174C27.8511 32.6963 27.2357 31.7296 26.8387 30.6752C26.4028 29.5087 26.1868 28.2774 26.201 27.0386C26.1918 25.8212 26.414 24.6123 26.8567 23.471C27.2695 22.4067 27.9048 21.4344 28.7238 20.6134C29.5451 19.8027 30.5262 19.156 31.6104 18.7109C32.7847 18.2353 34.0496 17.9987 35.3246 18.0162C36.6948 17.9881 38.0519 18.277 39.2806 18.8583C40.3774 19.3969 41.3286 20.172 42.0592 21.1225C42.7969 22.0929 43.3286 23.1935 43.6245 24.3591C43.9483 25.5993 44.0642 26.8798 43.9663 28.1545H31.1106C31.0587 29.366 31.4924 30.5469 32.322 31.4637C33.1932 32.1954 34.3321 32.5657 35.4885 32.4934C36.396 32.5126 37.2876 32.2638 38.0432 31.7795C38.6429 31.4293 39.1027 30.8991 39.3486 30.2694H43.6564C43.1682 32.0469 42.045 33.6045 40.482 34.6715C38.9349 35.5877 37.1408 36.0482 35.3226 35.996ZM35.1846 21.557C34.5129 21.5329 33.845 21.6642 33.2376 21.9398C32.7618 22.1695 32.34 22.4891 31.9982 22.8777C31.6983 23.2317 31.4725 23.6413 31.3425 24.0796C31.2271 24.4455 31.1527 24.8221 31.1206 25.2031H39.0807C39.0233 24.2106 38.628 23.2634 37.9553 22.5063C37.587 22.1735 37.1506 21.9172 36.6738 21.7538C36.1969 21.5904 35.6899 21.5234 35.1846 21.557ZM15.9341 35.552H4V12.0006H15.5943C16.6683 11.9916 17.7404 12.091 18.7927 12.2972C19.6843 12.4637 20.5318 12.7949 21.2935 13.2695C21.9811 13.725 22.5329 14.3452 22.8927 15.0667C23.2925 15.9357 23.4824 16.8793 23.4524 17.8286C23.4958 18.8786 23.2051 19.9165 22.6188 20.8048C21.9791 21.6527 21.1096 22.3207 20.1081 22.7398C21.4694 23.0652 22.6668 23.8442 23.4864 24.9352C24.246 26.0587 24.6318 27.3774 24.5898 28.7153C24.6189 29.7855 24.3732 30.8463 23.8742 31.8044C23.4144 32.6542 22.7468 33.3853 21.9272 33.9347C21.0784 34.5001 20.1305 34.915 19.1285 35.1596C18.0826 35.4226 17.0055 35.5551 15.9241 35.5539L15.9341 35.552ZM9.41733 25.0577V31.546H15.1945C15.7042 31.5518 16.214 31.502 16.7137 31.3986C17.1715 31.3144 17.6053 31.1441 17.9931 30.8972C18.3664 30.6622 18.6694 30.3383 18.8727 29.9574C19.1085 29.4789 19.2185 28.9545 19.1965 28.4262C19.2443 27.9432 19.1725 27.4561 18.9871 27.0046C18.8016 26.553 18.5077 26.1496 18.129 25.8271C17.3005 25.281 16.307 25.0119 15.3024 25.0615L9.41733 25.0577ZM9.41733 16.0142V21.5168H14.8986C15.7462 21.5494 16.5818 21.3178 17.2814 20.8565C17.606 20.5984 17.8601 20.2685 18.0217 19.8954C18.1833 19.5222 18.2476 19.117 18.209 18.7148C18.2259 18.246 18.1215 17.7805 17.9051 17.3597C17.7097 17.0195 17.4216 16.7364 17.0716 16.5405C16.7029 16.3312 16.2957 16.1915 15.8721 16.129C15.4108 16.0462 14.9421 16.0071 14.4728 16.0122L9.41733 16.0142ZM40.0842 15.907H30.1091V13.5815H40.0842V15.907Z" fill="#035ACF"/>
</svg>
