<svg width="158" height="158" viewBox="0 0 158 158" fill="none" xmlns="http://www.w3.org/2000/svg">
<path d="M105.333 105.333C119.877 105.333 131.667 93.5435 131.667 79C131.667 64.4565 119.877 52.6667 105.333 52.6667C90.7898 52.6667 79 64.4565 79 79C79 93.5435 90.7898 105.333 105.333 105.333Z" fill="#19BCFE"/>
<path fill-rule="evenodd" clip-rule="evenodd" d="M52.6667 158C59.6507 158 66.3487 155.226 71.2872 150.287C76.2256 145.349 79 138.651 79 131.667V105.333H52.6667C45.6826 105.333 38.9847 108.108 34.0462 113.046C29.1077 117.985 26.3333 124.683 26.3333 131.667C26.3333 138.651 29.1077 145.349 34.0462 150.287C38.9847 155.226 45.6826 158 52.6667 158V158Z" fill="#09CF83"/>
<path fill-rule="evenodd" clip-rule="evenodd" d="M52.6667 105.333H79V52.6667H52.6667C45.6826 52.6667 38.9847 55.4411 34.0462 60.3795C29.1077 65.318 26.3333 72.016 26.3333 79C26.3333 85.9841 29.1077 92.682 34.0462 97.6205C38.9847 102.559 45.6826 105.333 52.6667 105.333V105.333Z" fill="#A259FF"/>
<path fill-rule="evenodd" clip-rule="evenodd" d="M52.6667 52.6667H79V0H52.6667C45.6826 0 38.9847 2.7744 34.0462 7.71286C29.1077 12.6513 26.3333 19.3493 26.3333 26.3333C26.3333 33.3174 29.1077 40.0154 34.0462 44.9538C38.9847 49.8923 45.6826 52.6667 52.6667 52.6667V52.6667Z" fill="#F24E1E"/>
<path fill-rule="evenodd" clip-rule="evenodd" d="M105.333 52.6667H79V0H105.333C112.317 0 119.015 2.7744 123.954 7.71286C128.892 12.6513 131.667 19.3493 131.667 26.3333C131.667 33.3174 128.892 40.0154 123.954 44.9538C119.015 49.8923 112.317 52.6667 105.333 52.6667Z" fill="#FF7262"/>
</svg>
