<svg width="32" height="32" viewBox="0 0 32 32" fill="none" xmlns="http://www.w3.org/2000/svg">
<path d="M22.8801 11.7501C23.8051 11.1782 24.5184 10.3202 24.9117 9.30626C25.305 8.2923 25.3569 7.17773 25.0595 6.13162C24.762 5.08552 24.1315 4.16497 23.2636 3.50962C22.3956 2.85428 21.3376 2.4999 20.2501 2.50024H11.7501C10.6624 2.49985 9.60439 2.85421 8.73641 3.50957C7.86842 4.16492 7.23788 5.0855 6.94044 6.13164C6.64299 7.17778 6.69488 8.29239 7.08824 9.30638C7.48159 10.3204 8.19493 11.1784 9.12005 11.7502C8.39549 12.1979 7.7974 12.8233 7.3826 13.5672C6.9678 14.311 6.75007 15.1485 6.75008 16.0002C6.75009 16.8519 6.96785 17.6894 7.38267 18.4333C7.79749 19.1771 8.3956 19.8025 9.12018 20.2501C8.37952 20.7085 7.77149 21.3525 7.35634 22.1183C6.9412 22.884 6.73334 23.745 6.75338 24.6158C6.77341 25.4866 7.02063 26.3371 7.47056 27.0829C7.92048 27.8288 8.55748 28.4441 9.31844 28.868C10.0794 29.2919 10.9379 29.5096 11.8089 29.4995C12.6799 29.4894 13.5331 29.2519 14.2841 28.8106C15.035 28.3692 15.6576 27.7393 16.0902 26.9832C16.5227 26.2271 16.7502 25.3712 16.7501 24.5001V19.5664C17.2517 20.0589 17.8517 20.4401 18.5107 20.685C19.1698 20.9298 19.873 21.0329 20.5746 20.9874C21.2762 20.9419 21.9603 20.7489 22.5822 20.421C23.2041 20.0931 23.7498 19.6376 24.1837 19.0844C24.6175 18.5312 24.9298 17.8926 25.1 17.2105C25.2703 16.5284 25.2947 15.818 25.1717 15.1258C25.0486 14.4336 24.7809 13.7751 24.386 13.1934C23.9912 12.6118 23.478 12.1199 22.8801 11.7501ZM23.7501 7.50024C23.749 8.42775 23.3803 9.31702 22.7247 9.9731C22.0691 10.6292 21.1801 10.9986 20.2526 11.0002L20.2501 11.0001L20.2452 11.0002L16.7501 11.0001V4.00024H20.2501C21.178 4.00127 22.0676 4.37035 22.7238 5.0265C23.3799 5.68266 23.749 6.5723 23.7501 7.50024ZM8.25005 7.50024C8.25108 6.5723 8.62016 5.68266 9.27631 5.0265C9.93247 4.37035 10.8221 4.00127 11.7501 4.00024H15.2501V11.0001H11.7477C10.8202 10.9985 9.93115 10.6291 9.27552 9.97307C8.61988 9.31701 8.25111 8.42775 8.25005 7.50024ZM8.25005 16.0001C8.25108 15.0726 8.61983 14.1833 9.27547 13.5272C9.93111 12.8711 10.8201 12.5018 11.7477 12.5001L11.7501 12.5002H15.2501V19.5L11.7501 19.5001C10.8221 19.4991 9.93247 19.13 9.27631 18.4739C8.62016 17.8177 8.25108 16.9281 8.25005 16.0001ZM11.7501 28C11.2887 28.0028 10.8313 27.9143 10.4043 27.7396C9.9772 27.565 9.58889 27.3076 9.26167 26.9823C8.93445 26.657 8.67477 26.2703 8.49756 25.8443C8.32036 25.4183 8.22914 24.9614 8.22914 24.5001C8.22914 24.0387 8.32036 23.5818 8.49756 23.1558C8.67477 22.7298 8.93445 22.3431 9.26167 22.0178C9.58889 21.6925 9.9772 21.4352 10.4043 21.2605C10.8313 21.0859 11.2887 20.9974 11.7501 21.0001H15.2501V24.5001C15.249 25.428 14.8799 26.3177 14.2238 26.9738C13.5676 27.6299 12.678 27.999 11.7501 28ZM20.2501 19.5001C19.3254 19.4953 18.4402 19.1247 17.7879 18.4694C17.1356 17.8141 16.769 16.9273 16.7684 16.0026C16.7677 15.0779 17.133 14.1906 17.7845 13.5344C18.4359 12.8782 19.3205 12.5064 20.2452 12.5002H20.2526C21.1772 12.5061 22.0619 12.8776 22.7136 13.5336C23.3652 14.1896 23.7308 15.0768 23.7304 16.0014C23.7301 16.9261 23.3639 17.813 22.7118 18.4685C22.0597 19.1241 21.1747 19.4949 20.2501 19.5001Z" fill="white"/>
</svg>
