<svg width="118" height="128" viewBox="0 0 118 128" fill="none" xmlns="http://www.w3.org/2000/svg">
<path d="M105.333 99.3333C119.877 99.3333 131.667 87.5435 131.667 73C131.667 58.4565 119.877 46.6667 105.333 46.6667C90.7898 46.6667 79 58.4565 79 73C79 87.5435 90.7898 99.3333 105.333 99.3333Z" fill="#19BCFE"/>
<path fill-rule="evenodd" clip-rule="evenodd" d="M52.6667 152C59.6507 152 66.3487 149.226 71.2871 144.287C76.2256 139.349 79 132.651 79 125.667V99.3333H52.6667C45.6826 99.3333 38.9846 102.108 34.0462 107.046C29.1077 111.985 26.3333 118.683 26.3333 125.667C26.3333 132.651 29.1077 139.349 34.0462 144.287C38.9846 149.226 45.6826 152 52.6667 152Z" fill="#09CF83"/>
<path fill-rule="evenodd" clip-rule="evenodd" d="M52.6667 99.3333H79V46.6667H52.6667C45.6826 46.6667 38.9846 49.4411 34.0462 54.3795C29.1077 59.318 26.3333 66.016 26.3333 73C26.3333 79.984 29.1077 86.682 34.0462 91.6205C38.9846 96.5589 45.6826 99.3333 52.6667 99.3333Z" fill="#A259FF"/>
<path fill-rule="evenodd" clip-rule="evenodd" d="M52.6667 46.6667H79V-6H52.6667C45.6826 -6 38.9846 -3.2256 34.0462 1.71286C29.1077 6.65131 26.3333 13.3493 26.3333 20.3333C26.3333 27.3174 29.1077 34.0154 34.0462 38.9538C38.9846 43.8923 45.6826 46.6667 52.6667 46.6667Z" fill="#F24E1E"/>
<path fill-rule="evenodd" clip-rule="evenodd" d="M105.333 46.6667H79V-6H105.333C112.317 -6 119.015 -3.2256 123.954 1.71286C128.892 6.65131 131.667 13.3493 131.667 20.3333C131.667 27.3174 128.892 34.0154 123.954 38.9538C119.015 43.8923 112.317 46.6667 105.333 46.6667Z" fill="#FF7262"/>
</svg>
