<svg width="48" height="48" viewBox="0 0 48 48" fill="none" xmlns="http://www.w3.org/2000/svg">
<path d="M25.9723 6.00726C29.1064 6.01358 29.795 6.03981 31.419 6.11391C33.3343 6.20134 34.6423 6.50548 35.787 6.95034C36.9703 7.4102 37.9738 8.02548 38.9741 9.02584C39.9745 10.0262 40.5898 11.0297 41.0496 12.213C41.4945 13.3576 41.7986 14.6656 41.886 16.581C41.9669 18.3526 41.9908 19.011 41.9939 22.9455V25.0544C41.9908 28.989 41.9669 29.6474 41.886 31.419C41.7986 33.3343 41.4945 34.6423 41.0496 35.787C40.5898 36.9703 39.9745 37.9738 38.9741 38.9741C37.9738 39.9745 36.9703 40.5898 35.787 41.0496C34.6423 41.4945 33.3343 41.7986 31.419 41.8861C29.6474 41.9669 28.989 41.9907 25.0544 41.9939H22.9455C19.011 41.9907 18.3526 41.9669 16.581 41.8861C14.6656 41.7986 13.3576 41.4945 12.213 41.0496C11.0297 40.5898 10.0262 39.9745 9.02583 38.9741C8.02548 37.9738 7.41019 36.9702 6.95033 35.787C6.50548 34.6423 6.20133 33.3343 6.1139 31.419C6.03981 29.795 6.01363 29.1065 6.00732 25.9723V22.0276C6.01363 18.8935 6.03981 18.2049 6.1139 16.581C6.20133 14.6656 6.50548 13.3576 6.95033 12.213C7.41019 11.0297 8.02548 10.0262 9.02583 9.02584C10.0262 8.02548 11.0297 7.4102 12.213 6.95034C13.3576 6.50548 14.6656 6.20134 16.581 6.11391C18.205 6.03981 18.8935 6.01358 22.0276 6.00726H25.9723ZM25.948 9.59361H22.0361C19.091 9.59946 18.4502 9.62341 16.8943 9.6944C15.1818 9.77256 14.2518 10.0587 13.6328 10.2992C12.8129 10.6178 12.2277 10.9985 11.6131 11.6131C10.9985 12.2277 10.6178 12.8129 10.2993 13.6328C10.0587 14.2518 9.77256 15.1818 9.6944 16.8944C9.62342 18.4502 9.59946 19.091 9.59362 22.0361V25.948C9.59946 28.893 9.62342 29.5339 9.6944 31.0898C9.77256 32.8023 10.0587 33.7323 10.2993 34.3513C10.6178 35.1711 10.9985 35.7563 11.6131 36.371C12.2277 36.9856 12.8129 37.3663 13.6328 37.6848C14.2518 37.9254 15.1818 38.2115 16.8944 38.2897C18.5981 38.3674 19.2045 38.3888 22.943 38.3917H25.0411C28.7795 38.3888 29.386 38.3674 31.0897 38.2897C32.8023 38.2115 33.7323 37.9254 34.3513 37.6848C35.1712 37.3663 35.7563 36.9856 36.371 36.371C36.9856 35.7563 37.3663 35.1711 37.6848 34.3513C37.9254 33.7323 38.2115 32.8023 38.2897 31.0897C38.3742 29.2376 38.392 28.6821 38.392 23.992L38.392 23.4487C38.3905 19.2555 38.3708 18.6724 38.2897 16.8943C38.2115 15.1818 37.9254 14.2518 37.6848 13.6328C37.3663 12.8129 36.9856 12.2277 36.371 11.6131C35.7563 10.9985 35.1712 10.6178 34.3513 10.2992C33.7323 10.0587 32.8023 9.77256 31.0897 9.6944C29.5339 9.62341 28.893 9.59946 25.948 9.59361ZM24 14.4C29.3019 14.4 33.6 18.6981 33.6 24C33.6 29.3019 29.3019 33.6 24 33.6C18.6981 33.6 14.4 29.3019 14.4 24C14.4 18.6981 18.6981 14.4 24 14.4ZM24 18.0018C20.6873 18.0018 18.0018 20.6873 18.0018 24C18.0018 27.3126 20.6873 29.9981 24 29.9981C27.3126 29.9981 29.9981 27.3126 29.9981 24C29.9981 20.6873 27.3126 18.0018 24 18.0018ZM33.6054 12.2353C34.798 12.2353 35.7647 13.202 35.7647 14.3946C35.7647 15.5871 34.798 16.5539 33.6054 16.5539C32.4128 16.5539 31.446 15.5871 31.446 14.3946C31.446 13.202 32.4128 12.2353 33.6054 12.2353Z" fill="url(#paint0_linear)"/>
<defs>
<linearGradient id="paint0_linear" x1="6" y1="41.9999" x2="42" y2="5.99994" gradientUnits="userSpaceOnUse">
<stop stop-color="#FFD854"/>
<stop offset="0.5" stop-color="#FE5340"/>
<stop offset="1" stop-color="#C938AA"/>
</linearGradient>
</defs>
</svg>
