<svg width="40" height="40" viewBox="0 0 40 40" fill="none" xmlns="http://www.w3.org/2000/svg">
<path fill-rule="evenodd" clip-rule="evenodd" d="M21.272 11C21.272 10.7348 21.1666 10.4804 20.9791 10.2929C20.7916 10.1054 20.5372 10 20.272 10H7C6.20435 10 5.44129 10.3161 4.87868 10.8787C4.31607 11.4413 4 12.2044 4 13V33C4 33.7956 4.31607 34.5587 4.87868 35.1213C5.44129 35.6839 6.20435 36 7 36H27C27.7956 36 28.5587 35.6839 29.1213 35.1213C29.6839 34.5587 30 33.7956 30 33V19.728C30 19.4628 29.8946 19.2084 29.7071 19.0209C29.5196 18.8334 29.2652 18.728 29 18.728C28.7348 18.728 28.4804 18.8334 28.2929 19.0209C28.1054 19.2084 28 19.4628 28 19.728V33C28 33.2652 27.8946 33.5196 27.7071 33.7071C27.5196 33.8946 27.2652 34 27 34H7C6.73478 34 6.48043 33.8946 6.29289 33.7071C6.10536 33.5196 6 33.2652 6 33V13C6 12.7348 6.10536 12.4804 6.29289 12.2929C6.48043 12.1054 6.73478 12 7 12H20.272C20.5372 12 20.7916 11.8946 20.9791 11.7071C21.1666 11.5196 21.272 11.2652 21.272 11Z" fill="#388FFF"/>
<path fill-rule="evenodd" clip-rule="evenodd" d="M36 4.99994C36 4.73474 35.8947 4.4804 35.7071 4.29287C35.5196 4.10535 35.2653 4 35.0001 4H25.0007C24.7355 4 24.4812 4.10535 24.2936 4.29287C24.1061 4.4804 24.0008 4.73474 24.0008 4.99994C24.0008 5.26514 24.1061 5.51947 24.2936 5.707C24.4812 5.89452 24.7355 5.99987 25.0007 5.99987H32.5862L16.2932 22.2908C16.2003 22.3838 16.1265 22.4942 16.0762 22.6157C16.0259 22.7371 16 22.8673 16 22.9988C16 23.1303 16.0259 23.2605 16.0762 23.3819C16.1265 23.5034 16.2003 23.6138 16.2932 23.7068C16.3862 23.7997 16.4966 23.8735 16.6181 23.9238C16.7395 23.9741 16.8697 24 17.0012 24C17.1327 24 17.2629 23.9741 17.3843 23.9238C17.5058 23.8735 17.6162 23.7997 17.7092 23.7068L34.0001 7.41378V14.9993C34.0001 15.2645 34.1055 15.5188 34.293 15.7064C34.4805 15.8939 34.7349 15.9992 35.0001 15.9992C35.2653 15.9992 35.5196 15.8939 35.7071 15.7064C35.8947 15.5188 36 15.2645 36 14.9993V4.99994Z" fill="#388FFF"/>
</svg>
