<svg width="40" height="40" viewBox="0 0 40 40" fill="none" xmlns="http://www.w3.org/2000/svg">
<path fill-rule="evenodd" clip-rule="evenodd" d="M24.272 8C24.272 7.73478 24.1666 7.48043 23.9791 7.29289C23.7916 7.10536 23.5372 7 23.272 7H10C9.20435 7 8.44129 7.31607 7.87868 7.87868C7.31607 8.44129 7 9.20435 7 10V30C7 30.7956 7.31607 31.5587 7.87868 32.1213C8.44129 32.6839 9.20435 33 10 33H30C30.7956 33 31.5587 32.6839 32.1213 32.1213C32.6839 31.5587 33 30.7956 33 30V16.728C33 16.4628 32.8946 16.2084 32.7071 16.0209C32.5196 15.8334 32.2652 15.728 32 15.728C31.7348 15.728 31.4804 15.8334 31.2929 16.0209C31.1054 16.2084 31 16.4628 31 16.728V30C31 30.2652 30.8946 30.5196 30.7071 30.7071C30.5196 30.8946 30.2652 31 30 31H10C9.73478 31 9.48043 30.8946 9.29289 30.7071C9.10536 30.5196 9 30.2652 9 30V10C9 9.73478 9.10536 9.48043 9.29289 9.29289C9.48043 9.10536 9.73478 9 10 9H23.272C23.5372 9 23.7916 8.89464 23.9791 8.70711C24.1666 8.51957 24.272 8.26522 24.272 8Z" fill="#99A2AD"/>
<path fill-rule="evenodd" clip-rule="evenodd" d="M33 7.99994C33 7.73474 32.8947 7.4804 32.7071 7.29287C32.5196 7.10535 32.2653 7 32.0001 7H22.0007C21.7355 7 21.4812 7.10535 21.2936 7.29287C21.1061 7.4804 21.0008 7.73474 21.0008 7.99994C21.0008 8.26514 21.1061 8.51947 21.2936 8.707C21.4812 8.89452 21.7355 8.99987 22.0007 8.99987H29.5862L13.2932 25.2908C13.2003 25.3838 13.1265 25.4942 13.0762 25.6157C13.0259 25.7371 13 25.8673 13 25.9988C13 26.1303 13.0259 26.2605 13.0762 26.3819C13.1265 26.5034 13.2003 26.6138 13.2932 26.7068C13.3862 26.7997 13.4966 26.8735 13.6181 26.9238C13.7395 26.9741 13.8697 27 14.0012 27C14.1327 27 14.2629 26.9741 14.3843 26.9238C14.5058 26.8735 14.6162 26.7997 14.7092 26.7068L31.0001 10.4138V17.9993C31.0001 18.2645 31.1055 18.5188 31.293 18.7064C31.4805 18.8939 31.7349 18.9992 32.0001 18.9992C32.2653 18.9992 32.5196 18.8939 32.7071 18.7064C32.8947 18.5188 33 18.2645 33 17.9993V7.99994Z" fill="#99A2AD"/>
</svg>
