<svg width="48" height="48" viewBox="0 0 48 48" fill="none" xmlns="http://www.w3.org/2000/svg">
<path d="M42.923 13.4524C43.106 12.5216 42.703 12 41.7499 12H36.9489C35.8495 12 35.4461 12.484 35.1165 13.1915C35.1165 13.1915 32.5719 19.0855 29.4134 22.6266C28.3996 23.7715 28.2216 24.1159 27.6619 24.1159C27.2104 24.1159 27.0022 23.7335 27.0022 22.7008V13.6525C27.0022 12.3864 26.8574 12 25.8295 12H18.1874C17.5979 12 17.2041 12.3263 17.2041 12.799C17.2041 13.9913 18.9999 14.2604 18.9999 17.491V24.1562C18.9999 25.4968 18.9265 26.0181 18.3035 26.0181C16.6544 26.0181 12.3717 20.2808 10.1729 13.727C9.73281 12.3864 9.25859 12 8.00847 12H3.21979C2.52341 12 2 12.4978 2 13.2054C2 14.5087 3.50241 20.5413 9.40314 28.6216C13.361 34.058 18.9027 37 23.5936 37C26.4525 37 27.0022 36.4957 27.0022 35.2665V31.0962C27.0022 30.0537 27.4052 29.6066 27.9916 29.6066C28.6513 29.6066 29.6249 29.8425 32.3456 32.5688C35.5704 35.6967 35.7905 37 37.5499 37H42.9369C43.487 37 44 36.7392 44 35.8085C44 34.5793 42.4239 32.3825 40.0051 29.7759C39.0157 28.4353 37.4029 26.9833 36.8899 26.313C36.1568 25.531 36.3768 25.0839 36.8899 24.2649C36.8899 24.2649 42.3729 16.059 42.923 13.4524Z" fill="#1273F2"/>
</svg>
