<svg width="32" height="32" viewBox="0 0 32 32" fill="none" xmlns="http://www.w3.org/2000/svg">
<path d="M16 4C10.9307 4 4 7.8315 4 16C4 23.9606 10.6661 28 16 28C25.1512 28 28 19.9827 28 16C28 10.1228 23.5024 4 16 4ZM13.2173 5.12913C11.9654 6.19685 10.926 7.96378 10.2551 10.1559C9.38583 9.64094 8.5874 9.00315 7.87874 8.26142C9.34331 6.72598 11.1953 5.64882 13.2173 5.12913ZM7.36378 8.8378C8.15748 9.66457 9.05984 10.3685 10.0425 10.926C9.67402 12.3575 9.45669 13.9449 9.42835 15.6126H4.78425C4.86929 13.1228 5.77638 10.7465 7.36378 8.8378ZM7.36378 23.1622C5.77165 21.2535 4.86929 18.8772 4.78425 16.3874H9.42835C9.45669 18.0598 9.67402 19.6425 10.0425 21.074C9.06457 21.6362 8.1622 22.3354 7.36378 23.1622ZM7.87874 23.7433C8.5874 23.0016 9.38583 22.3638 10.2551 21.8488C10.926 24.0362 11.9654 25.8079 13.2173 26.8756C11.1953 26.3512 9.34331 25.274 7.87874 23.7433ZM15.6126 27.1968C13.6 26.9417 11.8661 24.6929 10.9307 21.4709C12.3764 20.7386 13.9732 20.3276 15.6126 20.2661V27.1968ZM15.6126 19.4961C13.9024 19.5528 12.2394 19.9732 10.7323 20.7102C10.4157 19.3874 10.2268 17.9276 10.1984 16.3874H15.6126V19.4961ZM15.6126 15.6126H10.1984C10.2268 14.0724 10.4157 12.6126 10.7323 11.2898C12.2441 12.0268 13.9071 12.4472 15.6126 12.5039V15.6126ZM15.6126 11.7339C13.9685 11.6772 12.3764 11.2614 10.9307 10.5291C11.8661 7.30236 13.6 5.05827 15.6126 4.80315V11.7339ZM24.6362 8.8378C26.2236 10.7465 27.1307 13.1228 27.2157 15.6126H22.5764C22.548 13.9402 22.3307 12.3575 21.9622 10.926C22.9402 10.3638 23.8425 9.66457 24.6362 8.8378ZM24.1213 8.25669C23.4126 8.99843 22.6142 9.63622 21.7449 10.1512C21.074 7.96378 20.0346 6.19685 18.7827 5.12441C20.8047 5.64882 22.6567 6.72598 24.1213 8.25669ZM16.3874 4.80315C18.4 5.05827 20.1339 7.30709 21.0693 10.5291C19.6236 11.2614 18.0315 11.6724 16.3874 11.7339V4.80315ZM16.3874 12.5039C18.0976 12.4472 19.7606 12.0268 21.2677 11.2898C21.5843 12.6126 21.7732 14.0724 21.8016 15.6126H16.3874V12.5039ZM16.3874 16.3874H21.8016C21.7732 17.9276 21.5843 19.3874 21.2677 20.7102C19.7606 19.9685 18.0976 19.548 16.3874 19.4961V16.3874ZM16.3874 27.1968V20.2661C18.0315 20.3228 19.6236 20.7386 21.0693 21.4709C20.1339 24.6976 18.4 26.9417 16.3874 27.1968ZM18.7827 26.8709C20.0346 25.8032 21.074 24.0362 21.7449 21.8441C22.6142 22.3591 23.4126 22.9968 24.1213 23.7386C22.6567 25.274 20.8047 26.3512 18.7827 26.8709ZM24.6362 23.1622C23.8425 22.3354 22.9402 21.6362 21.9622 21.074C22.3307 19.6425 22.548 18.0551 22.5764 16.3874H27.2157C27.1307 18.8772 26.2236 21.2535 24.6362 23.1622Z" fill="white"/>
</svg>
